<?xml version="1.0" standalone="no"?>
<!DOCTYPE svg PUBLIC "-//W3C//DTD SVG 20010904//EN"
 "http://www.w3.org/TR/2001/REC-SVG-20010904/DTD/svg10.dtd">
<svg version="1.0" xmlns="http://www.w3.org/2000/svg"
 width="910.586637pt" height="893.315593pt" viewBox="0 0 910.586637 893.315593"
 preserveAspectRatio="xMidYMid meet">
<metadata>
Created by potrace 1.16, written by Peter Selinger 2001-2019
</metadata>
<g transform="translate(-153.913363,1112.469486) scale(0.100000,-0.100000)"
fill="#000000" stroke="none">
<path d="M5215 11120 c-119 -14 -213 -53 -314 -128 -290 -218 -324 -666 -71
-922 36 -36 80 -77 98 -91 l32 -24 -77 -60 c-135 -105 -240 -259 -299 -435
l-29 -85 0 -306 0 -305 38 -76 c152 -309 588 -357 724 -80 27 55 28 63 33 267
5 199 7 213 31 265 14 30 38 69 53 87 30 36 131 88 188 98 l37 6 -40 -68 c-54
-93 -78 -162 -90 -256 -24 -193 47 -388 192 -528 l59 -57 -68 -6 c-267 -27
-520 -120 -735 -273 -127 -90 -280 -249 -370 -383 -112 -170 -175 -316 -229
-535 l-22 -90 -3 -1770 c-3 -1555 -2 -1783 12 -1875 8 -58 18 -116 22 -128 l6
-24 -44 24 c-37 19 -59 23 -134 23 -107 0 -151 -19 -218 -92 -79 -87 -112
-114 -186 -151 -72 -36 -78 -37 -180 -36 -86 0 -117 4 -164 23 -109 43 -214
148 -259 258 l-23 58 -3 2053 -2 2052 21 62 c120 357 577 431 791 128 118
-167 322 -196 466 -65 160 144 121 398 -96 627 -141 147 -300 240 -499 290
-125 32 -360 32 -483 1 -123 -31 -251 -88 -354 -157 -99 -66 -227 -188 -272
-260 -16 -25 -32 -46 -35 -46 -4 0 -18 17 -31 38 -37 55 -130 143 -192 181
-131 79 -306 109 -455 77 -214 -45 -387 -204 -474 -433 -21 -56 -21 -74 -25
-531 -4 -532 -4 -532 69 -682 73 -150 223 -276 379 -321 25 -7 48 -15 52 -19
4 -3 -50 -42 -120 -85 -220 -138 -329 -272 -367 -451 -21 -101 -21 -692 1
-784 39 -169 135 -292 317 -410 64 -41 117 -77 117 -81 0 -3 -22 -13 -48 -22
-121 -44 -259 -168 -325 -294 -74 -141 -77 -169 -77 -672 0 -504 0 -505 75
-657 100 -205 293 -330 525 -341 194 -9 345 50 482 189 l77 78 38 -57 c53 -81
174 -199 267 -262 102 -69 201 -114 323 -149 92 -25 111 -27 288 -26 178 0
196 2 280 28 242 73 437 215 545 396 21 36 47 90 56 121 l17 57 50 -82 c107
-177 236 -321 393 -439 239 -180 493 -276 788 -298 94 -7 707 -9 1861 -6 1546
3 1728 5 1800 20 225 46 391 113 563 227 349 232 576 570 659 985 17 85 18
194 18 1890 l0 1800 -22 101 c-91 411 -302 724 -643 954 -223 150 -468 233
-734 247 l-111 6 75 76 c120 122 180 267 180 436 0 126 -35 245 -100 342 -17
24 -30 47 -30 50 0 3 29 3 65 0 122 -12 211 -68 266 -169 l34 -63 5 -215 c6
-201 7 -218 30 -265 49 -101 159 -178 271 -191 73 -8 184 17 261 58 121 64
214 189 238 317 13 71 13 429 -1 527 -31 225 -171 460 -353 589 -30 22 -56 42
-56 45 0 3 16 16 35 29 57 39 147 142 183 208 94 178 95 418 0 594 -42 80
-143 188 -223 238 -35 23 -99 53 -142 68 -67 23 -94 27 -188 27 -92 -1 -123
-5 -191 -27 -238 -79 -400 -274 -435 -527 -18 -126 20 -301 87 -402 l24 -38
-336 0 -336 0 41 47 c113 128 101 337 -26 454 -182 168 -469 83 -540 -160 -29
-102 0 -217 78 -306 l31 -35 -212 0 -212 0 31 35 c17 20 43 59 58 88 23 44 27
64 27 137 1 78 -2 90 -33 148 -63 116 -163 177 -291 177 -179 0 -316 -130
-328 -310 -5 -88 23 -169 81 -232 l40 -43 -213 0 -212 0 37 41 c57 63 78 121
79 214 1 72 -3 88 -32 147 -59 120 -160 183 -297 182 -66 0 -90 -5 -136 -27
-110 -53 -179 -157 -187 -282 -5 -88 23 -169 81 -232 l40 -43 -303 0 c-166 0
-300 3 -298 8 85 164 115 280 104 399 -13 143 -72 281 -161 381 -90 100 -241
181 -365 197 -88 12 -106 12 -165 5z m235 -267 c83 -39 151 -106 192 -191 31
-62 33 -74 33 -167 0 -92 -3 -106 -32 -167 -57 -120 -142 -190 -273 -224 -261
-67 -528 183 -481 450 27 151 129 271 270 318 87 28 208 21 291 -19z m4401 1
c201 -95 289 -334 193 -531 -78 -161 -259 -256 -425 -224 -136 27 -242 110
-301 236 -30 63 -33 79 -33 160 0 80 4 97 32 157 52 110 125 178 235 219 83
30 212 23 299 -17z m-3162 -342 c46 -33 64 -69 65 -121 2 -148 -187 -203 -272
-80 -19 28 -23 44 -20 85 5 61 29 96 83 124 46 24 105 21 144 -8z m840 1 c68
-51 86 -117 51 -188 -51 -104 -192 -113 -257 -16 -50 75 -12 183 77 220 34 15
98 6 129 -16z m831 5 c57 -30 83 -76 77 -139 -5 -56 -34 -101 -81 -123 -142
-67 -280 105 -179 225 51 60 112 73 183 37z m1149 -634 c24 -8 80 -19 124 -25
202 -25 376 -143 489 -330 74 -122 82 -163 86 -439 2 -153 0 -258 -7 -280 -26
-88 -129 -160 -228 -160 -44 0 -58 5 -85 29 l-33 29 -6 214 c-6 230 -15 272
-75 376 -76 130 -238 233 -395 253 -52 6 -346 9 -779 7 l-695 -3 -55 -23 c-74
-30 -143 -82 -183 -138 -19 -26 -69 -134 -113 -241 -43 -108 -85 -198 -93
-201 -7 -3 -20 -1 -28 4 -8 5 -48 95 -89 199 -86 216 -124 276 -214 334 -105
68 -80 66 -850 66 -690 0 -696 0 -765 -22 -191 -60 -345 -234 -375 -423 -5
-36 -10 -141 -10 -233 l0 -169 -30 -30 c-29 -29 -34 -30 -99 -26 -88 5 -152
42 -196 112 l-30 49 -3 221 c-4 265 6 327 73 464 97 196 289 332 511 363 41 5
91 16 112 24 31 11 362 14 2017 14 1754 1 1985 -1 2024 -15z m-3205 -584 c82
-32 184 -133 216 -216 80 -204 -8 -423 -205 -515 -269 -126 -581 85 -562 381
11 174 113 307 277 362 74 24 193 19 274 -12z m659 19 c68 -19 96 -59 177
-264 41 -104 87 -205 102 -226 76 -105 243 -130 356 -54 52 36 84 89 151 255
95 232 101 243 163 274 49 25 60 26 206 26 l153 0 -19 -27 c-89 -127 -134
-308 -111 -453 23 -150 84 -268 192 -372 l59 -58 -938 0 -939 0 54 48 c73 63
145 175 177 276 52 163 30 362 -57 508 -21 36 -39 69 -39 72 0 10 274 6 313
-5z m1970 -27 c84 -42 147 -105 189 -190 31 -62 33 -73 33 -172 0 -93 -3 -111
-27 -163 -15 -31 -50 -81 -77 -110 -195 -206 -531 -149 -654 111 -29 61 -32
76 -32 162 0 86 3 101 31 160 51 109 129 181 237 221 41 15 72 19 143 16 79
-2 100 -7 157 -35z m-5093 -922 c41 -12 116 -42 165 -68 213 -111 387 -363
319 -460 -40 -58 -111 -44 -162 30 -71 103 -201 197 -337 244 -69 24 -95 28
-195 28 -130 0 -195 -15 -300 -70 -165 -86 -291 -242 -347 -429 -17 -57 -18
-174 -21 -2089 -3 -2184 -4 -2112 48 -2249 12 -32 44 -91 71 -132 188 -280
540 -373 842 -222 63 31 101 60 165 124 46 46 92 88 102 93 42 22 110 -32 110
-88 0 -73 -97 -218 -194 -290 -72 -53 -197 -114 -281 -136 -202 -54 -465 -18
-647 89 -169 99 -299 257 -357 434 -20 61 -21 85 -21 480 0 329 -3 431 -15
486 -13 60 -15 263 -15 1400 0 986 3 1339 12 1365 7 23 13 178 18 455 5 345 9
428 22 465 96 275 309 469 588 540 107 27 122 29 245 25 74 -2 135 -11 185
-25z m-1598 -161 c130 -28 240 -113 299 -234 l34 -70 3 -444 c3 -421 2 -448
-17 -510 -40 -130 -150 -240 -279 -277 -86 -25 -205 -15 -287 25 -82 41 -174
137 -207 218 -23 57 -23 63 -26 487 -2 273 1 448 8 479 34 159 161 288 320
323 71 16 88 16 152 3z m7158 -39 c131 -27 257 -72 357 -127 338 -189 566
-495 649 -873 18 -81 19 -164 19 -1860 0 -1929 3 -1820 -56 -2003 -37 -112
-124 -282 -191 -372 -197 -263 -500 -448 -821 -500 -140 -23 -3566 -22 -3707
0 -136 22 -245 58 -368 120 -363 185 -619 528 -694 930 -10 56 -13 427 -13
1835 0 1684 1 1769 19 1850 113 519 516 912 1028 1005 59 11 431 13 1876 14
1768 1 1806 1 1902 -19z m-6859 -1912 c-3 -25 -48 -55 -388 -263 -212 -130
-388 -234 -390 -231 -12 12 10 118 36 172 49 103 90 138 342 294 128 80 269
168 313 195 l81 50 5 -95 c3 -52 3 -107 1 -122z m4 -280 c11 -47 0 -207 -15
-221 -8 -8 -139 -90 -290 -182 -151 -93 -321 -197 -377 -232 l-103 -63 0 124
0 123 383 236 c210 130 385 236 389 236 4 1 10 -9 13 -21z m-2 -570 l-2 -121
-283 -175 c-156 -96 -291 -177 -300 -179 -9 -3 -33 7 -53 23 -36 27 -95 103
-95 122 0 5 89 64 198 130 108 65 271 165 362 221 91 55 167 101 170 101 3 0
4 -55 3 -122z m3 -608 c1 -143 -1 -260 -3 -260 -3 0 -401 257 -411 265 -2 2
68 47 155 100 87 54 178 111 203 126 25 16 47 29 50 29 3 0 5 -117 6 -260z
m-292 -385 c129 -27 230 -109 290 -235 l31 -65 3 -449 c3 -493 1 -513 -58
-606 -180 -281 -572 -257 -721 45 l-34 70 -3 440 c-4 497 -1 519 69 624 61 91
163 159 271 180 62 13 76 12 152 -4z M3660 7279 c-36 -14 -79 -58 -102 -103
-29 -57 -22 -149 16 -205 73 -104 243 -109 319 -9 103 136 9 330 -159 327 -27
0 -60 -5 -74 -10z M3752 6186 c-58 -19 -115 -60 -146 -104 -38 -55 -322 -640
-336 -692 -24 -90 11 -208 83 -278 113 -110 287 -113 404 -8 43 39 66 81 213
377 l165 333 4 77 c3 66 -1 86 -22 132 -29 63 -81 118 -140 149 -53 27 -164
34 -225 14z m140 -207 c11 -6 26 -26 34 -46 15 -34 14 -37 -42 -156 -32 -67
-101 -210 -154 -317 -103 -206 -114 -220 -180 -220 -33 0 -80 49 -80 84 0 36
294 631 321 650 27 18 71 21 101 5z M3679 4377 c-58 -22 -96 -54 -118 -100
-63 -130 17 -273 164 -293 61 -9 145 32 183 88 38 58 42 146 10 208 -44 82
-157 127 -239 97z"/>
</g>
</svg>
