<?xml version="1.0" standalone="no"?>
<!DOCTYPE svg PUBLIC "-//W3C//DTD SVG 20010904//EN"
 "http://www.w3.org/TR/2001/REC-SVG-20010904/DTD/svg10.dtd">
<svg version="1.0" xmlns="http://www.w3.org/2000/svg"
 width="854.875000pt" height="1056.577755pt" viewBox="0 0 854.875000 1056.577755"
 preserveAspectRatio="xMidYMid meet">
<metadata>
Created by potrace 1.16, written by Peter Selinger 2001-2019
</metadata>
<g transform="translate(-115.500000,1266.816407) scale(0.100000,-0.100000)"
fill="#000000" stroke="none">
<path d="M4845 12663 c-267 -9 -442 -45 -583 -117 -200 -104 -323 -249 -389
-461 l-28 -90 2 -647 2 -648 -292 0 c-478 -1 -929 -17 -1037 -35 -410 -72
-766 -316 -998 -685 -62 -99 -156 -302 -195 -420 -65 -197 -114 -465 -137
-755 -17 -205 -14 -815 5 -1115 75 -1199 276 -2075 645 -2810 205 -409 399
-690 650 -940 144 -144 236 -220 390 -322 l110 -73 -98 -12 c-736 -93 -1387
-514 -1688 -1092 -43 -83 -49 -101 -49 -156 0 -51 5 -69 28 -104 53 -79 152
-101 244 -54 30 16 54 45 113 140 94 152 184 265 293 370 329 315 746 491
1266 532 180 15 4461 15 4648 1 713 -55 1259 -372 1585 -923 67 -114 105 -142
192 -142 113 0 180 67 180 181 0 76 -39 160 -144 318 -331 492 -935 846 -1582
928 -54 7 -98 15 -98 18 1 3 33 25 73 50 89 56 236 170 346 269 367 332 715
900 957 1562 237 651 382 1507 424 2499 51 1194 -103 1852 -539 2302 -136 142
-245 223 -406 303 -135 67 -246 103 -400 131 -97 17 -589 32 -1069 33 l-258 1
6 288 c4 158 7 438 8 622 2 368 -4 424 -61 561 -100 238 -327 412 -604 464
-140 26 -392 35 -922 33 -280 -1 -546 -3 -590 -5z m1116 -403 c146 -5 288 -14
315 -21 177 -42 293 -162 325 -335 21 -109 -6 -1414 -36 -1729 -84 -904 -224
-1843 -366 -2465 -69 -300 -171 -695 -182 -707 -2 -2 -60 6 -128 18 -249 42
-619 37 -899 -13 -63 -11 -121 -21 -129 -22 -17 -1 -35 58 -110 354 -150 589
-246 1109 -340 1830 -51 385 -117 1015 -130 1235 -17 275 -33 1409 -20 1485
20 128 85 230 183 289 101 60 163 72 426 80 351 11 792 12 1091 1z m-2067
-2162 c18 -204 73 -689 106 -945 111 -847 225 -1446 403 -2108 l53 -200 -96
-51 c-416 -222 -726 -543 -940 -974 -110 -219 -173 -426 -211 -687 -28 -193
-23 -499 10 -663 47 -232 157 -499 273 -661 75 -104 73 -101 45 -90 -78 30
-272 132 -374 198 -264 168 -479 374 -645 618 -242 356 -248 1072 -12 1673
191 490 525 904 909 1129 39 23 82 54 97 70 90 94 73 240 -37 308 -41 25 -58
30 -114 30 -57 0 -76 -6 -136 -38 -85 -45 -229 -152 -361 -267 -412 -360 -725
-903 -883 -1530 -21 -84 -41 -149 -43 -144 -8 12 -103 334 -122 409 -110 449
-125 844 -45 1188 91 387 314 782 610 1076 171 170 303 266 517 376 115 59
142 77 166 112 63 91 40 213 -53 278 -38 27 -51 30 -115 30 -68 0 -81 -4 -177
-52 -375 -187 -732 -515 -1005 -924 -51 -76 -95 -148 -99 -159 -18 -57 -25 -3
-25 198 0 736 93 1184 313 1512 62 92 170 205 257 270 136 101 335 178 510
199 41 5 330 9 641 10 l565 1 18 -192z m4401 165 c332 -75 590 -283 753 -608
158 -312 228 -744 220 -1350 l-3 -230 -62 100 c-261 426 -668 813 -1060 1007
-134 67 -192 73 -273 31 -46 -23 -60 -37 -82 -82 -30 -59 -34 -99 -17 -152 23
-68 54 -95 174 -154 364 -178 698 -504 925 -905 205 -363 300 -771 270 -1153
-19 -244 -82 -567 -159 -822 -64 -212 -59 -207 -86 -90 -104 454 -331 939
-589 1259 -159 197 -373 398 -556 521 -146 97 -175 110 -250 110 -113 0 -198
-71 -208 -174 -9 -98 35 -165 152 -233 503 -291 920 -926 1040 -1582 91 -496
36 -964 -146 -1227 -201 -294 -496 -549 -827 -718 l-120 -61 59 112 c109 208
175 418 206 651 22 165 15 495 -14 652 -142 778 -543 1355 -1153 1660 -41 21
-75 39 -77 40 -2 1 22 96 53 211 168 624 293 1280 394 2074 34 264 89 747 106
925 9 94 18 180 21 193 l5 23 607 -4 c567 -3 613 -5 697 -24z m-2465 -3622
c711 -134 1232 -681 1397 -1466 25 -120 27 -148 27 -365 1 -262 -10 -336 -79
-545 -106 -325 -315 -615 -495 -688 -53 -21 -70 -22 -417 -25 -200 -2 -363 0
-363 4 0 3 35 43 77 88 217 230 352 551 369 876 30 573 -327 1053 -859 1155
-269 51 -591 -29 -791 -197 -146 -123 -98 -351 77 -366 58 -5 106 14 163 61
115 96 342 142 508 103 108 -26 200 -79 286 -165 188 -190 252 -473 175 -777
-101 -400 -429 -695 -853 -769 -108 -19 -329 -19 -452 -1 -493 75 -858 433
-971 956 -20 91 -23 133 -23 315 0 190 3 222 27 340 159 752 673 1289 1388
1449 177 40 237 45 474 42 174 -3 244 -8 335 -25z M5344 11782 c-160 -56 -227
-226 -147 -373 48 -89 133 -139 233 -139 101 0 185 50 235 141 25 45 30 65 30
124 0 59 -5 79 -30 124 -35 63 -88 105 -158 126 -65 19 -100 19 -163 -3z
M5340 10774 c-64 -23 -111 -64 -145 -126 -25 -44 -30 -64 -30 -123 0 -60 5
-78 31 -125 100 -179 367 -181 466 -4 55 99 48 200 -20 289 -68 89 -197 127
-302 89z M5335 9764 c-58 -20 -106 -64 -140 -125 -39 -70 -42 -170 -8 -235 26
-49 89 -108 140 -130 47 -20 145 -23 197 -5 49 17 121 83 148 134 106 208
-112 441 -337 361z M5336 8770 c-179 -71 -231 -291 -102 -424 108 -110 280
-113 387 -6 128 128 92 337 -74 421 -59 31 -149 35 -211 9z M5336 7785 c-168
-60 -226 -264 -116 -404 50 -63 113 -94 203 -99 57 -4 75 0 122 22 205 101
202 382 -5 475 -53 24 -146 27 -204 6z"/>
</g>
</svg>
