<?xml version="1.0" standalone="no"?>
<!DOCTYPE svg PUBLIC "-//W3C//DTD SVG 20010904//EN"
 "http://www.w3.org/TR/2001/REC-SVG-20010904/DTD/svg10.dtd">
<svg version="1.0" xmlns="http://www.w3.org/2000/svg"
 width="935.044058pt" height="896.460872pt" viewBox="0 0 935.044058 896.460872"
 preserveAspectRatio="xMidYMid meet">
<metadata>
Created by potrace 1.16, written by Peter Selinger 2001-2019
</metadata>
<g transform="translate(-158.801866,1086.599849) scale(0.100000,-0.100000)"
fill="#000000" stroke="none">
<path d="M4855 10863 c-199 -27 -336 -68 -489 -146 -472 -241 -734 -730 -677
-1262 33 -304 141 -537 338 -726 47 -44 81 -84 76 -88 -4 -4 -43 -33 -86 -65
-95 -72 -207 -191 -267 -284 -43 -68 -60 -85 -60 -61 0 6 -18 49 -40 96 -124
265 -366 463 -652 533 -107 27 -314 37 -431 21 -263 -35 -482 -145 -664 -334
-127 -132 -208 -263 -263 -428 -56 -165 -54 -73 -51 -1877 2 -1554 4 -1668 21
-1750 81 -398 396 -697 819 -779 104 -20 340 -22 456 -4 167 26 342 96 483
194 131 90 270 258 313 380 7 20 15 37 19 37 3 0 21 -28 40 -62 76 -132 210
-264 367 -360 l83 -51 -73 -48 c-149 -97 -294 -277 -358 -443 -55 -144 -70
-219 -76 -386 -9 -245 20 -406 106 -585 130 -273 361 -439 661 -475 69 -8 574
-10 1845 -8 1918 5 1772 0 1955 63 304 104 512 370 565 725 40 257 0 540 -103
745 -77 154 -200 295 -321 370 -54 34 -61 41 -46 50 174 104 329 246 415 378
l54 83 48 -97 c39 -79 65 -116 134 -188 213 -224 486 -331 844 -331 303 0 537
75 742 239 166 133 272 298 331 516 l22 80 3 1670 c2 1158 0 1695 -8 1753 -47
357 -265 668 -574 817 -261 126 -628 152 -891 62 -301 -103 -525 -311 -641
-595 -9 -22 -13 -19 -58 53 -61 97 -193 235 -284 300 -39 28 -71 52 -71 55 0
3 23 23 50 45 63 50 163 174 211 260 208 373 202 885 -14 1260 -67 116 -127
195 -223 290 -170 170 -373 279 -635 341 -70 17 -170 18 -1495 20 -781 1
-1433 -1 -1450 -3z m2840 -254 c260 -34 516 -186 677 -403 132 -177 196 -366
205 -601 11 -291 -66 -526 -228 -700 -100 -106 -198 -160 -232 -126 -5 5 7 30
27 58 55 77 132 247 160 353 81 306 51 564 -90 782 -102 158 -291 313 -449
369 -50 17 -59 18 -89 5 -38 -16 -56 -42 -56 -81 0 -44 18 -64 93 -101 214
-107 368 -283 423 -484 28 -102 24 -297 -9 -422 -30 -113 -87 -240 -145 -324
-76 -108 -69 -104 -171 -104 -50 0 -91 2 -91 5 0 2 18 28 40 57 104 137 159
300 167 493 5 114 3 141 -16 210 -54 195 -184 348 -392 460 -99 53 -143 58
-186 21 -22 -19 -28 -32 -28 -66 0 -49 6 -54 126 -120 151 -82 268 -227 298
-368 15 -73 14 -173 -4 -257 -27 -129 -126 -299 -225 -389 -38 -34 -43 -36
-111 -36 l-71 0 36 41 c122 135 179 306 156 472 -13 89 -24 124 -66 207 -85
169 -263 316 -467 386 -145 50 -203 54 -714 54 -440 0 -482 -2 -576 -21 -135
-27 -244 -71 -349 -141 -196 -132 -311 -317 -325 -525 -10 -150 35 -285 137
-410 l51 -63 -72 0 -71 0 -59 61 c-74 77 -141 184 -176 280 -38 108 -45 281
-14 377 45 140 166 272 319 348 81 40 108 75 97 125 -8 37 -49 69 -89 69 -91
0 -312 -150 -404 -275 -111 -148 -154 -310 -133 -498 19 -168 89 -343 181
-455 l30 -37 -87 -5 c-78 -4 -91 -3 -112 15 -66 56 -174 262 -212 405 -19 70
-23 112 -24 235 0 131 3 159 23 220 67 201 185 333 398 448 103 55 123 79 110
133 -19 76 -87 84 -209 23 -110 -55 -157 -89 -250 -178 -180 -172 -267 -374
-267 -621 0 -239 70 -481 192 -662 l45 -67 -30 -10 c-27 -10 -36 -7 -96 33
-176 117 -301 321 -347 562 -22 122 -15 366 14 476 48 178 122 314 239 438
150 159 326 259 561 317 60 15 196 17 1307 22 1348 6 1510 5 1630 -10z m-994
-819 c207 -17 346 -76 470 -200 85 -84 123 -152 141 -249 15 -79 1 -169 -38
-249 -34 -71 -151 -189 -219 -223 -50 -24 -51 -24 -412 -27 l-363 -3 -25 25
c-33 33 -34 99 -2 147 36 55 95 78 217 84 149 8 166 12 206 47 44 39 61 72 70
135 14 106 -47 217 -144 265 -44 22 -58 23 -242 23 -223 0 -272 -9 -408 -76
-146 -71 -241 -189 -277 -341 -9 -38 -15 -113 -15 -187 l0 -124 -72 5 c-53 4
-88 12 -128 33 -76 38 -170 137 -211 221 -32 65 -34 74 -34 174 0 102 1 109
37 181 36 73 116 164 183 210 104 70 239 117 372 128 128 12 759 12 894 1z
m-165 -431 c16 -15 24 -32 22 -49 -3 -24 -5 -25 -103 -31 -159 -10 -231 -37
-315 -115 -69 -65 -95 -128 -95 -236 l0 -88 -97 0 -98 0 0 118 c0 182 36 267
143 339 102 69 217 94 405 89 102 -3 115 -6 138 -27z m-3586 -730 c269 -67
477 -281 553 -569 l22 -85 0 -1720 0 -1720 -23 -75 c-83 -264 -296 -452 -598
-527 -106 -26 -363 -23 -469 6 -235 63 -425 211 -521 406 -59 121 -75 186 -81
339 l-6 129 47 -32 c118 -82 237 -115 411 -115 109 -1 142 3 205 23 206 64
363 194 452 373 73 148 71 133 76 723 5 704 -3 779 -97 970 -128 258 -361 384
-658 354 -145 -15 -299 -76 -392 -156 l-41 -35 0 184 0 183 53 31 c133 78 280
114 468 114 182 0 310 -33 398 -101 32 -26 74 -24 108 5 22 19 28 32 28 65 0
53 -36 91 -130 137 -122 60 -208 77 -390 77 -207 1 -344 -26 -485 -97 l-50
-25 0 164 0 164 84 41 c127 61 254 91 417 97 178 7 271 -11 387 -73 94 -51
126 -52 162 -7 30 39 26 77 -15 122 -146 162 -608 196 -925 68 -37 -15 -60
-20 -60 -13 0 6 11 36 23 67 78 188 257 373 442 454 182 81 414 101 605 54z
m7132 -3 c113 -29 252 -97 318 -156 36 -33 40 -40 21 -34 -48 13 -354 6 -451
-10 -275 -45 -529 -167 -699 -335 -134 -132 -157 -186 -102 -242 51 -51 82
-40 179 62 36 38 95 92 131 120 83 63 262 152 361 179 226 62 482 67 729 14
29 -6 37 -15 61 -68 28 -61 53 -142 64 -203 5 -32 5 -32 -22 -22 -90 35 -221
52 -392 53 -155 0 -188 -3 -285 -26 -205 -48 -373 -138 -506 -269 -73 -72
-144 -172 -154 -218 -17 -79 66 -131 135 -86 9 6 37 40 62 76 172 243 498 373
855 340 100 -9 285 -48 314 -67 5 -3 9 -70 9 -149 l0 -143 -49 23 c-210 102
-569 91 -796 -22 -172 -86 -315 -243 -375 -411 l-23 -62 -251 2 -251 3 -3 450
c-2 498 3 560 58 703 41 108 100 194 195 287 126 124 292 207 470 235 100 15
287 4 397 -24z m-2132 -30 c389 -93 675 -379 757 -756 17 -80 18 -169 18
-1590 l0 -1505 -27 -97 c-67 -245 -229 -455 -442 -576 -90 -52 -231 -99 -333
-113 -52 -6 -634 -9 -1718 -7 l-1640 3 -90 28 c-49 15 -118 41 -153 57 -205
95 -386 288 -471 500 -64 162 -61 79 -61 1720 0 1590 -1 1544 47 1690 28 87
97 210 160 289 152 191 416 338 665 370 35 5 772 8 1638 7 1476 -2 1580 -3
1650 -20z m2522 -1261 c77 -17 159 -50 209 -85 l29 -21 0 -582 0 -582 -29 -51
c-78 -136 -276 -198 -414 -130 -105 51 -156 136 -165 273 -6 103 15 188 63
254 66 91 194 125 298 79 54 -24 88 -19 117 17 36 46 20 109 -35 143 -17 11
-58 26 -90 35 -241 62 -475 -94 -531 -354 -79 -374 154 -683 498 -657 86 6
185 36 240 72 21 13 40 24 43 24 10 0 5 -555 -6 -594 -15 -56 -107 -145 -189
-183 -36 -17 -97 -38 -137 -47 -93 -21 -295 -21 -382 -1 -187 44 -322 186
-351 365 -6 40 -10 348 -10 795 0 813 -1 798 68 929 74 143 241 264 412 300
89 20 272 20 362 1z m-8017 -421 c132 -34 235 -123 300 -259 24 -49 49 -112
56 -140 17 -70 25 -1163 9 -1241 -19 -89 -81 -202 -150 -271 -108 -108 -231
-157 -390 -156 -158 1 -296 57 -390 159 -54 58 -60 78 -60 187 l0 92 84 -3
c320 -12 552 154 612 438 53 252 -82 540 -253 540 -84 0 -146 -76 -124 -151 6
-21 25 -49 43 -62 28 -22 30 -28 24 -61 -9 -49 -68 -113 -131 -142 -69 -33
-190 -34 -229 -3 l-26 20 0 368 0 368 30 60 c99 198 371 316 595 257z m6985
-209 l0 -95 -240 0 -240 0 0 95 0 95 240 0 240 0 0 -95z m0 -630 c0 -201 0
-368 0 -372 0 -5 -107 -8 -237 -8 l-238 0 -3 373 -3 372 241 0 240 0 0 -365z
m-7099 -320 c-22 -117 -109 -224 -219 -266 -43 -16 -86 -23 -174 -27 l-118 -4
0 94 0 94 61 -6 c162 -16 312 32 406 127 27 27 49 48 51 47 2 -1 -1 -28 -7
-59z m7105 -327 l1 -88 -239 0 -238 0 0 90 0 90 238 -2 237 -3 1 -87z m45
-285 c29 -78 61 -125 134 -199 90 -92 175 -141 304 -176 110 -30 358 -30 487
-1 93 22 202 66 253 102 16 12 32 21 37 21 11 0 -4 -257 -20 -343 -64 -335
-351 -582 -731 -627 -324 -39 -648 75 -819 289 -64 79 -108 163 -137 263 -20
66 -23 101 -26 371 -3 164 -2 304 1 312 4 13 46 15 256 15 l250 0 11 -27z
m-3121 -1653 l0 -260 -103 0 c-245 0 -461 -112 -587 -303 -137 -208 -130 -511
16 -730 30 -44 54 -82 54 -84 0 -1 -85 -3 -189 -3 l-188 0 -40 43 c-53 57 -88
119 -118 206 -86 255 -38 538 126 728 46 54 58 75 59 102 0 50 -32 81 -86 81
-37 0 -48 -6 -97 -55 -103 -103 -172 -230 -208 -383 -18 -75 -20 -109 -16
-242 5 -178 29 -279 96 -407 l38 -73 -172 0 -172 0 -39 31 c-94 74 -166 189
-210 334 -23 78 -27 108 -28 225 0 111 3 149 22 213 26 91 57 156 105 219 49
64 60 86 53 114 -17 65 -99 85 -155 38 -38 -32 -113 -144 -146 -217 -118 -269
-79 -663 90 -899 l35 -48 -26 0 c-43 0 -144 30 -204 60 -157 79 -274 237 -332
445 -19 69 -22 105 -22 270 0 224 14 289 93 450 97 196 272 342 470 390 45 11
237 13 969 14 l912 1 0 -260z m698 3 l-3 -258 -252 -3 -253 -3 0 261 0 260
255 0 255 0 -2 -257z m1027 224 c138 -55 280 -173 359 -299 173 -275 181 -741
16 -1002 -78 -123 -218 -229 -360 -270 -30 -9 -95 -19 -144 -23 -99 -7 -97
-11 -41 62 38 50 79 142 102 226 23 87 23 280 0 369 -56 216 -214 386 -403
434 -39 10 -116 17 -215 18 l-154 3 -3 258 -2 258 387 -3 388 -3 70 -28z
m-482 -699 c73 -35 160 -117 192 -182 146 -302 -8 -668 -301 -716 -56 -9 -404
-14 -404 -6 0 2 14 33 31 69 122 261 -18 559 -296 632 -108 28 -273 13 -340
-31 -33 -21 -48 -69 -35 -109 19 -57 57 -65 170 -35 93 24 219 -10 282 -77 51
-54 73 -112 73 -188 -1 -109 -54 -188 -160 -237 -49 -23 -56 -23 -400 -23
l-350 0 -56 28 c-103 50 -194 167 -233 296 -18 61 -21 184 -5 250 38 164 187
308 362 346 50 11 197 13 737 12 l675 -2 58 -27z M3225 6513 c-60 -16 -95 -67
-95 -139 0 -41 5 -51 39 -85 34 -34 44 -39 86 -39 64 0 108 28 130 82 30 76
-8 157 -83 178 -39 10 -45 11 -77 3z M3225 5859 c-52 -14 -88 -61 -93 -122 -4
-49 -1 -57 27 -90 60 -67 151 -70 205 -7 86 103 -10 253 -139 219z"/>
</g>
</svg>
