<?xml version="1.0" standalone="no"?>
<!DOCTYPE svg PUBLIC "-//W3C//DTD SVG 20010904//EN"
 "http://www.w3.org/TR/2001/REC-SVG-20010904/DTD/svg10.dtd">
<svg version="1.0" xmlns="http://www.w3.org/2000/svg"
 width="1036.480789pt" height="780.305968pt" viewBox="0 0 1036.480789 780.305968"
 preserveAspectRatio="xMidYMid meet">
<metadata>
Created by potrace 1.16, written by Peter Selinger 2001-2019
</metadata>
<g transform="translate(-169.500000,979.803238) scale(0.100000,-0.100000)"
fill="#000000" stroke="none">
<path d="M6620 9789 c-883 -5 -1382 -11 -1434 -18 -324 -45 -606 -177 -829
-390 -203 -193 -325 -406 -377 -662 -19 -91 -21 -127 -17 -284 4 -150 9 -196
30 -276 85 -324 285 -578 542 -687 l67 -29 -58 -45 c-147 -114 -308 -313 -391
-486 l-36 -75 -22 56 c-46 113 -147 239 -258 323 -85 64 -245 140 -364 170
-133 35 -357 44 -486 20 -174 -33 -338 -104 -490 -214 -91 -65 -243 -219 -311
-314 -61 -87 -137 -237 -171 -338 -56 -167 -66 -245 -72 -529 l-6 -264 -62
-61 c-81 -80 -138 -169 -161 -253 -18 -64 -19 -118 -19 -893 l0 -825 28 -80
c45 -127 122 -231 239 -321 22 -17 29 -35 42 -111 29 -171 95 -327 194 -458
295 -396 817 -554 1294 -391 231 79 448 254 561 454 l31 55 15 -34 c95 -218
183 -351 322 -484 139 -133 301 -229 489 -289 199 -64 97 -61 1915 -61 1583 0
1665 1 1760 19 136 25 230 57 360 121 254 124 469 345 596 611 l40 85 40 -81
c107 -222 313 -393 579 -480 133 -43 239 -61 406 -67 472 -18 872 121 1134
393 133 138 218 290 269 482 50 188 51 194 51 1733 0 921 -4 1474 -10 1540
-44 436 -172 703 -425 884 -363 261 -1057 309 -1525 105 -198 -86 -379 -239
-476 -402 l-51 -87 -46 92 c-86 175 -232 352 -381 465 l-65 49 56 23 c203 84
400 303 490 542 64 171 77 248 77 478 0 189 -2 213 -26 311 -105 418 -431 761
-858 903 -202 67 -353 86 -655 84 -104 -1 -800 -5 -1545 -9z m1167 -243 c-3
-6 -53 -141 -112 -301 -59 -159 -111 -294 -116 -299 -11 -12 -309 -13 -309 -1
1 6 52 145 114 310 l113 300 139 5 c151 5 177 3 171 -14z m748 -1 c452 -81
803 -389 912 -802 35 -132 37 -349 5 -490 -61 -267 -209 -470 -420 -577 -67
-34 -190 -66 -253 -66 l-49 0 29 46 c73 115 111 264 111 438 0 302 -121 541
-349 694 -136 91 -304 142 -470 142 -36 0 -116 3 -177 6 l-111 7 49 131 c122
327 171 453 185 475 l15 24 217 -6 c128 -3 253 -12 306 -22z m-1751 -7 c-12
-42 -214 -573 -223 -588 -6 -12 -37 -16 -156 -18 l-147 -3 7 28 c6 25 83 230
182 486 l45 117 150 0 149 0 -7 -22z m493 10 c-88 -236 -184 -489 -205 -542
l-28 -70 -142 -4 c-118 -3 -142 -2 -142 10 0 11 118 329 219 591 l11 27 146 0
c113 0 145 -3 141 -12z m-997 -5 c0 -5 -51 -143 -113 -308 l-114 -300 -234 -6
c-269 -7 -354 -22 -496 -89 -196 -91 -323 -219 -413 -413 -57 -124 -73 -201
-74 -352 -1 -184 22 -272 122 -467 12 -24 -189 7 -279 43 -208 81 -372 282
-450 550 -30 106 -38 325 -14 440 23 114 72 242 131 341 95 158 291 336 473
428 126 63 305 114 451 130 98 10 1010 12 1010 3z m1929 -811 c125 -35 197
-78 286 -167 95 -94 145 -181 175 -306 24 -100 26 -225 5 -324 -17 -84 -80
-214 -130 -272 l-37 -43 -79 0 -80 0 49 50 c104 105 158 257 149 415 -13 235
-153 407 -397 491 -53 18 -105 19 -1280 19 -1140 0 -1229 -1 -1289 -18 -262
-72 -430 -282 -431 -538 0 -72 32 -196 67 -262 16 -29 51 -76 79 -104 l50 -53
-82 0 -83 0 -34 43 c-87 107 -131 240 -131 402 0 128 17 203 72 315 52 108
177 233 288 288 152 76 139 75 714 82 283 3 859 6 1280 5 749 -1 767 -2 839
-23z m-153 -333 c115 -35 194 -103 240 -203 80 -175 8 -401 -156 -490 -91 -50
-133 -55 -409 -56 l-255 -1 -13 35 c-62 180 -210 344 -388 431 -174 84 -326
109 -687 109 -255 1 -268 0 -295 -20 -60 -45 -61 -138 -2 -188 l31 -26 203 0
c244 0 340 -11 415 -48 66 -33 93 -67 93 -120 0 -91 -97 -154 -263 -172 -125
-13 -767 -13 -848 0 -111 18 -171 47 -238 114 -81 81 -107 147 -108 271 -1 81
2 97 31 157 36 76 88 131 162 172 102 55 82 54 1297 55 1115 1 1122 1 1190
-20z m-985 -494 c37 -26 89 -72 114 -103 44 -55 91 -139 83 -147 -6 -7 -308
-15 -308 -9 0 3 8 18 18 32 43 62 55 170 28 237 -8 19 -12 35 -9 35 3 0 36
-20 74 -45z m1481 -478 c151 -30 277 -81 388 -157 263 -181 445 -461 511 -787
17 -79 25 -3057 10 -3219 -28 -287 -130 -510 -326 -709 -140 -143 -260 -221
-437 -283 -201 -71 -84 -67 -1878 -67 -1275 0 -1630 3 -1685 13 -340 62 -636
289 -795 607 -60 120 -96 256 -110 409 -14 153 -13 3065 0 3173 59 471 409
884 848 1000 88 23 123 26 362 33 146 4 888 6 1650 5 1205 -2 1395 -4 1462
-18z m2473 -193 c342 -57 595 -237 705 -505 44 -106 89 -308 90 -401 l0 -27
-62 29 c-117 54 -177 65 -358 64 -197 0 -269 -16 -427 -94 -182 -90 -313 -204
-426 -373 l-52 -78 -95 -34 c-222 -77 -471 -219 -642 -367 l-58 -49 0 556 c0
599 3 639 55 766 45 112 167 256 285 336 251 170 621 237 985 177z m-7710 -45
c41 -6 75 -15 75 -18 0 -4 -25 -15 -56 -25 -87 -27 -282 -129 -371 -193 -172
-124 -197 -159 -149 -207 14 -15 34 -26 44 -26 10 0 45 21 78 46 205 161 448
276 634 299 54 7 57 6 115 -37 33 -25 73 -60 89 -79 l29 -34 -39 -6 c-22 -4
-75 -12 -119 -19 -156 -24 -332 -98 -490 -207 -63 -43 -70 -52 -73 -84 -2 -24
3 -42 13 -53 29 -29 71 -19 148 33 168 115 352 179 538 188 l116 6 25 -64 c14
-35 28 -76 31 -90 l7 -26 -85 -7 c-218 -16 -411 -88 -582 -215 -94 -69 -117
-98 -107 -135 17 -67 68 -66 162 5 83 64 201 128 290 158 84 28 230 53 294 49
l53 -3 3 -354 2 -353 -27 18 c-61 41 -137 74 -209 90 -98 21 -251 15 -344 -15
-239 -76 -428 -306 -485 -589 -22 -109 -16 -447 10 -562 57 -254 188 -442 367
-529 192 -93 410 -93 606 -1 l82 39 0 -238 c0 -268 4 -254 -86 -299 -105 -53
-329 -74 -454 -43 -85 21 -189 75 -251 129 -30 28 -64 51 -75 53 -63 10 -104
-39 -79 -97 32 -76 209 -192 350 -230 81 -21 272 -29 364 -15 41 7 106 23 145
36 39 14 75 26 79 27 14 5 8 -215 -6 -228 -7 -7 -41 -21 -77 -33 -204 -66
-453 -49 -664 45 -106 47 -122 50 -146 29 -25 -23 -26 -76 -2 -97 32 -29 161
-88 244 -112 197 -57 417 -57 602 0 16 5 18 3 12 -22 -4 -15 -23 -60 -43 -100
-33 -66 -39 -73 -77 -83 -84 -23 -152 -31 -260 -31 -150 0 -270 26 -397 86
-86 40 -104 45 -125 35 -37 -17 -51 -54 -30 -85 21 -32 174 -107 281 -138 70
-20 103 -23 257 -23 97 0 174 -3 171 -8 -14 -23 -150 -115 -228 -153 -218
-107 -453 -121 -682 -39 -133 48 -231 112 -343 224 -155 156 -218 292 -227
491 -6 138 -12 151 -82 189 -67 36 -138 107 -169 171 -47 98 -52 146 -52 457
l0 293 270 0 c349 0 340 -4 340 143 0 69 -3 84 -22 104 -21 23 -22 23 -305 23
l-283 0 0 329 c0 295 2 336 19 390 36 115 100 192 196 237 49 23 57 24 336 24
354 0 339 -6 339 130 0 72 -4 92 -19 111 l-19 24 -308 3 -307 3 6 167 c8 226
38 355 119 521 105 214 288 397 506 510 179 91 324 117 507 90z m8278 -992
c82 -27 155 -68 200 -115 l28 -29 -3 -564 -3 -564 -27 -58 c-52 -111 -129
-181 -227 -207 -118 -31 -227 44 -191 131 12 27 13 28 79 22 84 -7 124 10 184
77 51 57 67 103 67 197 0 172 -133 297 -330 310 -259 17 -489 -164 -567 -447
-14 -51 -18 -100 -17 -220 1 -182 18 -262 88 -405 50 -104 108 -178 186 -236
109 -82 214 -114 375 -114 127 0 217 19 318 69 l67 32 0 -221 0 -222 -35 -45
c-70 -93 -206 -176 -345 -213 -99 -26 -317 -31 -421 -11 -168 34 -301 122
-361 240 -58 115 -58 111 -58 1056 0 807 2 871 19 955 49 234 190 409 427 528
177 89 374 108 547 54z m-7791 -550 c54 -26 92 -54 132 -98 l56 -60 0 -233 0
-232 -31 -42 c-78 -106 -230 -159 -331 -114 -107 47 -147 162 -81 234 9 10 24
18 35 18 50 0 77 84 40 130 -26 32 -89 37 -138 12 -174 -89 -191 -344 -33
-486 74 -66 142 -90 259 -90 102 1 173 21 244 69 l36 24 0 -179 0 -180 -36
-40 c-43 -47 -151 -104 -231 -120 -31 -7 -98 -10 -147 -8 -76 3 -102 9 -158
35 -129 61 -220 175 -276 348 -43 131 -56 222 -55 380 1 210 37 343 129 472
42 59 114 123 174 153 78 41 125 50 231 48 99 -3 110 -5 181 -41z m6624 -39
c-3 -18 -9 -111 -13 -205 l-6 -173 -116 -66 c-170 -97 -357 -218 -481 -311
l-110 -81 0 192 0 192 58 56 c131 127 295 241 507 350 83 43 154 78 159 78 4
0 5 -15 2 -32z m1038 -422 c69 -52 84 -143 34 -192 -21 -21 -27 -22 -63 -12
-157 43 -289 -139 -229 -314 69 -205 368 -250 577 -86 l37 30 0 -165 0 -165
-42 -32 c-109 -80 -231 -115 -375 -108 -73 3 -100 10 -156 36 -178 83 -288
292 -290 552 -1 162 36 278 121 372 77 85 154 118 268 115 72 -2 85 -5 118
-31z m-1054 -234 l0 -98 -32 -18 c-178 -102 -510 -346 -625 -459 l-53 -51 0
116 0 115 43 39 c96 89 314 242 541 380 67 41 122 74 124 74 1 0 2 -44 2 -98z
m0 -496 l0 -215 -142 -97 c-228 -157 -442 -310 -507 -364 l-61 -51 0 187 0
187 118 116 c64 64 164 153 222 197 93 72 355 254 366 254 2 0 4 -96 4 -214z
m3 -568 c4 -105 12 -178 26 -233 65 -251 217 -396 496 -473 47 -13 102 -17
255 -16 169 0 206 3 275 22 129 36 262 105 339 177 l29 27 -7 -84 c-36 -456
-373 -788 -898 -884 -142 -26 -393 -24 -526 4 -358 77 -584 283 -667 606 -23
92 -35 209 -35 347 l0 126 63 59 c34 33 101 90 149 127 93 72 479 346 489 347
3 0 9 -69 12 -152z"/>
</g>
</svg>
